<?xml version="1.0" encoding="UTF-8" standalone="no"?>
<!-- Created with Inkscape (http://www.inkscape.org/) -->

<svg
   width="210mm"
   height="297mm"
   viewBox="0 0 210 297"
   version="1.1"
   id="svg5"
   xml:space="preserve"
   inkscape:version="1.2.1 (9c6d41e410, 2022-07-14)"
   sodipodi:docname="logotip_fundobranco.svg"
   xmlns:inkscape="http://www.inkscape.org/namespaces/inkscape"
   xmlns:sodipodi="http://sodipodi.sourceforge.net/DTD/sodipodi-0.dtd"
   xmlns="http://www.w3.org/2000/svg"
   xmlns:svg="http://www.w3.org/2000/svg"><sodipodi:namedview
     id="namedview7"
     pagecolor="#ffffff"
     bordercolor="#000000"
     borderopacity="0.25"
     inkscape:showpageshadow="2"
     inkscape:pageopacity="0.0"
     inkscape:pagecheckerboard="0"
     inkscape:deskcolor="#d1d1d1"
     inkscape:document-units="mm"
     showgrid="false"
     showguides="true"
     inkscape:zoom="1.0544998"
     inkscape:cx="232.33764"
     inkscape:cy="609.76778"
     inkscape:window-width="1920"
     inkscape:window-height="1017"
     inkscape:window-x="-8"
     inkscape:window-y="-8"
     inkscape:window-maximized="1"
     inkscape:current-layer="layer1"><sodipodi:guide
       position="105.88354,201.65464"
       orientation="1,0"
       id="guide10821"
       inkscape:locked="false" /></sodipodi:namedview><defs
     id="defs2"><inkscape:path-effect
       effect="mirror_symmetry"
       start_point="69.714683,64.922667"
       end_point="69.714683,94.723341"
       center_point="69.714683,79.823004"
       id="path-effect10829"
       is_visible="true"
       lpeversion="1.2"
       lpesatellites=""
       mode="free"
       discard_orig_path="false"
       fuse_paths="false"
       oposite_fuse="false"
       split_items="false"
       split_open="false"
       link_styles="false" /></defs><g
     inkscape:label="Camada 1"
     inkscape:groupmode="layer"
     id="layer1"
     style="display:inline"><ellipse
       style="fill:none;stroke:#000000;stroke-width:1.90075;stroke-dasharray:none;stroke-opacity:1"
       id="path231"
       cx="105.91936"
       cy="145.12901"
       rx="79.111259"
       ry="80.530617" /><path
       style="fill:none;stroke:#000000;stroke-width:2.63996;stroke-dasharray:none;stroke-opacity:1"
       d="m 28.392606,160.38287 12.766119,9.92677 8.753911,-13.47206 14.589852,6.73604 30.273944,-25.52601 39.027848,35.09827 13.49562,-9.57226 14.9546,8.50867 L 184.732,154.09"
       id="path966" /><path
       style="fill:#ffffff;stroke:#000000;stroke-width:0.505;stroke-dasharray:none;stroke-opacity:1"
       d="m 120.55645,215.56451 0.35484,-11.79838 4.43548,-10.73387 5.23387,10.99999 0.0887,13.57259 37.79032,-0.0887 19.78226,3.37096 -18.98387,5.85484 -38.94354,-0.35484 0.0887,12.86291 -4.79033,11.17742 -5.5,-11.35484 0.17742,-11.62097"
       id="path5683"
       sodipodi:nodetypes="ccccccccccccc" /><path
       style="fill:#ffffff;stroke:#000000;stroke-width:0.905;stroke-dasharray:none;stroke-opacity:1"
       d="m 13.306452,221.06451 17.741933,-5.32258 89.419355,0.17742 8.33871,5.85484 -8.16129,5.67742 -89.064515,-0.70968 z"
       id="path5577" /><path
       style="fill:#ffffff;stroke:#000000;stroke-width:0.505;stroke-dasharray:none;stroke-opacity:1"
       d="m 35.129033,221.59677 92.435477,0.17742"
       id="path5681" /><g
       id="g10827"
       inkscape:path-effect="#path-effect10829"
       class="UnoptimicedTransforms"
       transform="matrix(2.1120413,0,0,1.7558524,-41.520185,-67.222382)"
       style="stroke:#000000;stroke-opacity:1"><path
         style="fill:#ffffff;stroke:#000000;stroke-width:0.505;stroke-dasharray:none;stroke-opacity:1"
         d="m 53.882676,78.283564 c 2.372109,-1.956241 6.857166,-4.335559 15.242714,-0.689999 2.465899,-0.194706 -3.551486,-0.887336 -4.390905,1.31727 -4.132758,10.854061 -9.808467,17.662276 -18.880891,15.368168 -7.421579,-1.24957 -9.818472,-9.000909 -6.77454,-13.737259 7.378525,-11.480964 2.445069,-10.753818 1.881817,-12.921808 6.43128,0.608576 9.870132,5.047888 12.043623,9.095448 2.751551,4.27384 -2.427943,9.112394 -2.948177,14.427256 M 85.54669,78.283564 c -2.372109,-1.956241 -6.857166,-4.335559 -15.242714,-0.689999 -2.465899,-0.194706 3.551486,-0.887336 4.390905,1.31727 4.132758,10.854061 9.808467,17.662276 18.880891,15.368168 7.421578,-1.24957 9.818468,-9.000909 6.774538,-13.737259 -7.378523,-11.480964 -2.445067,-10.753818 -1.881815,-12.921808 -6.43128,0.608576 -9.870132,5.047888 -12.043623,9.095448 -2.751551,4.27384 2.427943,9.112394 2.948177,14.427256"
         id="path10805"
         sodipodi:nodetypes="ccscsccc"
         inkscape:original-d="m 53.882676,78.283564 c 2.372109,-1.956241 6.857166,-4.335559 15.242714,-0.689999 2.465899,-0.194706 -3.551486,-0.887336 -4.390905,1.31727 -4.132758,10.854061 -9.808467,17.662276 -18.880891,15.368168 -7.421579,-1.24957 -9.818472,-9.000909 -6.77454,-13.737259 7.378525,-11.480964 2.445069,-10.753818 1.881817,-12.921808 6.43128,0.608576 9.870132,5.047888 12.043623,9.095448 2.751551,4.27384 -2.427943,9.112394 -2.948177,14.427256" /><path
         style="fill:#ffffff;stroke:#000000;stroke-width:0.505;stroke-dasharray:none;stroke-opacity:1"
         d="m 47.798135,69.564481 c 0.535043,-1.758379 0.123971,-2.687996 -0.564544,-4.641814 2.727336,0.20781 11.145378,3.551953 9.659993,11.290897 l -2.383636,1.254545 m 37.121283,-7.903628 c -0.535043,-1.758379 -0.123971,-2.687996 0.564544,-4.641814 -2.727336,0.20781 -11.145378,3.551953 -9.659993,11.290897 l 2.383636,1.254545"
         id="path10807"
         sodipodi:nodetypes="cccc"
         inkscape:original-d="m 47.798135,69.564481 c 0.535043,-1.758379 0.123971,-2.687996 -0.564544,-4.641814 2.727336,0.20781 11.145378,3.551953 9.659993,11.290897 l -2.383636,1.254545" /><path
         style="fill:#ffffff;stroke:#000000;stroke-width:0.505;stroke-dasharray:none;stroke-opacity:1"
         d="m 56.893582,72.826295 c 4.612148,-3.305957 9.019905,-1.200316 12.043627,-0.376363 -2.636564,0.0326 -4.342562,1.545229 -5.519995,3.199089 m 19.11857,-2.822726 c -4.612148,-3.305957 -9.019905,-1.200316 -12.043627,-0.376363 2.636564,0.0326 4.342562,1.545229 5.519995,3.199089"
         id="path10809"
         sodipodi:nodetypes="ccc"
         inkscape:original-d="m 56.893582,72.826295 c 4.612148,-3.305957 9.019905,-1.200316 12.043627,-0.376363 -2.636564,0.0326 -4.342562,1.545229 -5.519995,3.199089" /><path
         style="fill:#ffffff;stroke:#000000;stroke-width:0.505;stroke-dasharray:none;stroke-opacity:1"
         d="m 54.00813,67.808117 c 1.35777,-1.447126 3.417753,-2.142629 5.269087,-1.944543 1.555534,1.215424 2.465814,3.326972 2.195452,5.206358 m 23.948567,-3.261815 c -1.35777,-1.447126 -3.417753,-2.142629 -5.269087,-1.944543 -1.555534,1.215424 -2.465814,3.326972 -2.195452,5.206358"
         id="path10811"
         sodipodi:nodetypes="ccc"
         inkscape:original-d="m 54.00813,67.808117 c 1.35777,-1.447126 3.417753,-2.142629 5.269087,-1.944543 1.555534,1.215424 2.465814,3.326972 2.195452,5.206358" /></g></g></svg>
